# xmcd CD database file
#
# Track frame offsets:
#	150
#	11274
#	32760
#	47279
#	60186
#	73759
#	94875
#	114061
#	129769
#	144390
#	159219
#	172837
#	186010
#	205004
#	227814
#	241900
#	255026
#	267933
#	281506
#	295089
#	312911
#
# Disc length: 4402 seconds
#
# Revision: 0
# Processed by: cddbd v1.5.1PL0 Copyright (c) Steve Scherf et al.
# Submitted via: CDex 1.51
#
DISCID=00113015
DTITLE=Adriana Calcanhoto - Coletania Pessoal
DYEAR=2000
DGENRE=MPB
TTITLE0=Devolva-me
TTITLE1=Naquela estacao
TTITLE2=Esquadros
TTITLE3=Mais feliz
TTITLE4=Mentiras
TTITLE5=Inverno
TTITLE6=Vambora
TTITLE7=Metade
TTITLE8=Senhas
TTITLE9=Cariocas
TTITLE10=Por isso eu corro demais
TTITLE11=Marina
TTITLE12=Maresia
TTITLE13=Abra a porta
TTITLE14=Beija eu
TTITLE15=E o mundo nao se acabou
TTITLE16=Mais feliz
TTITLE17=Mentiras
TTITLE18=Nada ficou no lugar
TTITLE19=O nosso amor
TTITLE20=Palpite
EXTD=YEAR: 2000
EXTT0=
EXTT1=
EXTT2=
EXTT3=
EXTT4=
EXTT5=
EXTT6=
EXTT7=
EXTT8=
EXTT9=
EXTT10=
EXTT11=
EXTT12=
EXTT13=
EXTT14=
EXTT15=
EXTT16=
EXTT17=
EXTT18=
EXTT19=
EXTT20=
PLAYORDER=
